<mxfile host="app.diagrams.net" modified="2023-04-23T14:01:37.838Z" agent="Mozilla/5.0 (Macintosh; Intel Mac OS X 10_15_7) AppleWebKit/537.36 (KHTML, like Gecko) Chrome/112.0.0.0 Safari/537.36" etag="1F16yMLC7vZB5KnMnEEy" version="21.2.1" type="github">
  <diagram id="zmi8DWPMi1QMRoTP6fmU" name="Page-1">
    <mxGraphModel dx="1647" dy="1070" grid="1" gridSize="10" guides="1" tooltips="1" connect="1" arrows="1" fold="1" page="0" pageScale="1" pageWidth="827" pageHeight="1169" background="none" math="0" shadow="0">
      <root>
        <mxCell id="0" />
        <mxCell id="1" parent="0" />
        <mxCell id="node3" value="&lt;p style=&quot;margin:0px;margin-top:4px;text-align:center;&quot;&gt;&lt;b&gt;account_auth&lt;/b&gt;&lt;/p&gt;&lt;hr size=&quot;1&quot;/&gt;&lt;p style=&quot;margin:0 0 0 4px;line-height:1.6;&quot;&gt; type  /* &amp;#39;角色类型&amp;#39; */: tinyint(1)&lt;br/&gt; account_id  /* &amp;#39;账号id&amp;#39; */: varchar(48)&lt;br/&gt; auth_codes  /* &amp;#39;权限id列表&amp;#39; */: varchar(1024)&lt;br/&gt; auth_info  /* &amp;#39;权限详情&amp;#39; */: text&lt;br/&gt; create_time  /* &amp;#39;创建时间&amp;#39; */: bigint&lt;br/&gt; update_time  /* &amp;#39;更新时间&amp;#39; */: bigint&lt;/p&gt;&lt;hr size=&quot;1&quot;/&gt;&lt;p style=&quot;margin:0 0 0 4px;line-height:1.6;&quot;&gt; id  /* &amp;#39;业务主键id&amp;#39; */: varchar(40)&lt;/p&gt;" style="verticalAlign=top;align=left;overflow=fill;fontSize=14;fontFamily=Helvetica;html=1;rounded=0;shadow=0;comic=0;labelBackgroundColor=none;strokeWidth=1;" parent="1" vertex="1">
          <mxGeometry x="-349" y="500" width="287" height="186" as="geometry" />
        </mxCell>
        <mxCell id="node10" value="&lt;p style=&quot;margin:0px;margin-top:4px;text-align:center;&quot;&gt;&lt;b&gt;account_role_binding&lt;/b&gt;&lt;/p&gt;&lt;hr size=&quot;1&quot;/&gt;&lt;p style=&quot;margin:0 0 0 4px;line-height:1.6;&quot;&gt; account_id  /* &amp;#39;账号id&amp;#39; */: varchar(48)&lt;br/&gt; role_list  /* &amp;#39;角色列表&amp;#39; */: varchar(4096)&lt;br/&gt; create_time  /* &amp;#39;创建时间&amp;#39; */: bigint&lt;br/&gt; update_time  /* &amp;#39;更新时间&amp;#39; */: bigint&lt;/p&gt;&lt;hr size=&quot;1&quot;/&gt;&lt;p style=&quot;margin:0 0 0 4px;line-height:1.6;&quot;&gt; id  /* &amp;#39;业务主键id&amp;#39; */: varchar(40)&lt;/p&gt;" style="verticalAlign=top;align=left;overflow=fill;fontSize=14;fontFamily=Helvetica;html=1;rounded=0;shadow=0;comic=0;labelBackgroundColor=none;strokeWidth=1;" parent="1" vertex="1">
          <mxGeometry x="-320" y="340" width="258" height="142" as="geometry" />
        </mxCell>
        <mxCell id="node5" value="&lt;p style=&quot;margin:0px;margin-top:4px;text-align:center;&quot;&gt;&lt;b&gt;audit_roles_info&lt;/b&gt;&lt;/p&gt;&lt;hr size=&quot;1&quot;/&gt;&lt;p style=&quot;margin:0 0 0 4px;line-height:1.6;&quot;&gt; role_id  /* &amp;#39;角色id&amp;#39; */: varchar(48)&lt;br/&gt; role_name  /* &amp;#39;角色名称&amp;#39; */: varchar(48)&lt;br/&gt; default  /* &amp;#39;是否为默认内容&amp;#39; */: tinyint(1)&lt;br/&gt; update_time  /* &amp;#39;更新时间&amp;#39; */: bigint&lt;br/&gt; updator_id  /* &amp;#39;修改人id&amp;#39; */: varchar(48)&lt;br/&gt; updator_name  /* &amp;#39;修改人&amp;#39; */: varchar(48)&lt;/p&gt;&lt;hr size=&quot;1&quot;/&gt;&lt;p style=&quot;margin:0 0 0 4px;line-height:1.6;&quot;&gt; id  /* &amp;#39;自增id&amp;#39; */: bigint&lt;/p&gt;" style="verticalAlign=top;align=left;overflow=fill;fontSize=14;fontFamily=Helvetica;html=1;rounded=0;shadow=0;comic=0;labelBackgroundColor=none;strokeWidth=1;" parent="1" vertex="1">
          <mxGeometry x="1005" y="187" width="273" height="186" as="geometry" />
        </mxCell>
        <mxCell id="node6" value="&lt;p style=&quot;margin:0px;margin-top:4px;text-align:center;&quot;&gt;&lt;b&gt;oper_organ_info&lt;/b&gt;&lt;/p&gt;&lt;hr size=&quot;1&quot;/&gt;&lt;p style=&quot;margin:0 0 0 4px;line-height:1.6;&quot;&gt; oper_organ_info_id  /* &amp;#39;唯一键&amp;#39; */: varchar(40)&lt;br/&gt; organ_id  /* &amp;#39;企业id&amp;#39; */: varchar(40)&lt;br/&gt; type  /* &amp;#39;账号类型&amp;#39; */: varchar(40)&lt;br/&gt; name  /* &amp;#39;姓名&amp;#39; */: varchar(64)&lt;br/&gt; account  /* &amp;#39;账户名&amp;#39; */: varchar(64)&lt;br/&gt; account_status  /* &amp;#39;状态&amp;#39; */: tinyint(1)&lt;br/&gt; social_credit_code  /* &amp;#39;社会信用代码&amp;#39; */: varchar(64)&lt;br/&gt; license_netdisk_id  /* &amp;#39;企业营业执照网盘id&amp;#39; */: varchar(128)&lt;br/&gt; authorization_netdisk_id  /* &amp;#39;授权书网盘id&amp;#39; */: varchar(128)&lt;br/&gt; organ_role_type  /* &amp;#39;企业类型&amp;#39; */: varchar(128)&lt;br/&gt; admin_info  /* &amp;#39;管理员信息&amp;#39; */: varchar(1024)&lt;br/&gt; appid_info  /* &amp;#39;appid信息&amp;#39; */: varchar(128)&lt;br/&gt; email  /* &amp;#39;邮箱&amp;#39; */: varchar(256)&lt;br/&gt; juridical_person_name  /* &amp;#39;法人姓名&amp;#39; */: varchar(64)&lt;br/&gt; juridical_person_id_card  /* &amp;#39;法人身份证号&amp;#39; */: varchar(64)&lt;br/&gt; third_review_result  /* &amp;#39;第三方审核结果&amp;#39; */: tinyint(1)&lt;br/&gt; third_refuse_reason  /* &amp;#39;第三方驳回原因&amp;#39; */: varchar(512)&lt;br/&gt; request_id  /* &amp;#39;请求id&amp;#39; */: varchar(128)&lt;br/&gt; apply_pass_time  /* &amp;#39;申请通过时间&amp;#39; */: bigint&lt;br/&gt; delay_time  /* &amp;#39;延期时间&amp;#39; */: bigint&lt;br/&gt; create_time  /* &amp;#39;创建时间&amp;#39; */: bigint&lt;br/&gt; update_time  /* &amp;#39;更新时间&amp;#39; */: bigint&lt;br/&gt; delete_time  /* &amp;#39;删除时间&amp;#39; */: bigint&lt;/p&gt;&lt;hr size=&quot;1&quot;/&gt;&lt;p style=&quot;margin:0 0 0 4px;line-height:1.6;&quot;&gt; id  /* &amp;#39;自增id&amp;#39; */: bigint&lt;/p&gt;" style="verticalAlign=top;align=left;overflow=fill;fontSize=14;fontFamily=Helvetica;html=1;rounded=0;shadow=0;comic=0;labelBackgroundColor=none;strokeWidth=1;" parent="1" vertex="1">
          <mxGeometry x="430" y="760" width="377" height="560" as="geometry" />
        </mxCell>
        <mxCell id="node4" value="&lt;p style=&quot;margin:0px;margin-top:4px;text-align:center;&quot;&gt;&lt;b&gt;organ_account&lt;/b&gt;&lt;/p&gt;&lt;hr size=&quot;1&quot;/&gt;&lt;p style=&quot;margin:0 0 0 4px;line-height:1.6;&quot;&gt; account_id  /* &amp;#39;账号id&amp;#39; */: varchar(40)&lt;br/&gt; type  /* &amp;#39;账号类型&amp;#39; */: tinyint(1)&lt;br/&gt; organ_id  /* &amp;#39;企业id&amp;#39; */: varchar(40)&lt;br/&gt; name  /* &amp;#39;姓名&amp;#39; */: varchar(40)&lt;br/&gt; email  /* &amp;#39;邮箱&amp;#39; */: varchar(256)&lt;br/&gt; account  /* &amp;#39;账户名&amp;#39; */: varchar(64)&lt;br/&gt; password  /* &amp;#39;密码&amp;#39; */: varchar(256)&lt;br/&gt; phone  /* &amp;#39;手机&amp;#39; */: varchar(64)&lt;br/&gt; area_code  /* &amp;#39;区号&amp;#39; */: varchar(64)&lt;br/&gt; identity  /* &amp;#39;身份证&amp;#39; */: varchar(64)&lt;br/&gt; role_id  /* &amp;#39;角色id&amp;#39; */: varchar(40)&lt;br/&gt; admin_id  /* &amp;#39;管理员id&amp;#39; */: varchar(40)&lt;br/&gt; bussiness_name  /* &amp;#39;企业名称&amp;#39; */: varchar(1024)&lt;br/&gt; hide_app_guide  /* &amp;#39;是否隐藏小程序操作指引&amp;#39; */: bigint&lt;br/&gt; ext_info  /* &amp;#39;注册者个人扩展信息&amp;#39; */: varchar(1024)&lt;br/&gt; msg_manage  /* &amp;#39;消息通知管理&amp;#39; */: varchar(1024)&lt;br/&gt; status  /* &amp;#39;账号冻结状态&amp;#39; */: tinyint(1)&lt;br/&gt; msg_process  /* &amp;#39;前端消息记录&amp;#39; */: tinyint(1)&lt;br/&gt; notify_process  /* &amp;#39;通知中心消息记录&amp;#39; */: tinyint(1)&lt;br/&gt; freeze_msg  /* &amp;#39;冻结消息&amp;#39; */: tinyint(1)&lt;br/&gt; delay_msg  /* &amp;#39;延期消息&amp;#39; */: tinyint(1)&lt;br/&gt; trial_reminder  /* &amp;#39;试用消息&amp;#39; */: tinyint(1)&lt;br/&gt; delay_time  /* &amp;#39;延期时间&amp;#39; */: bigint&lt;br/&gt; create_time  /* &amp;#39;创建时间&amp;#39; */: bigint&lt;br/&gt; update_time  /* &amp;#39;更新时间&amp;#39; */: bigint&lt;br/&gt; delete_time  /* &amp;#39;删除时间&amp;#39; */: bigint&lt;br/&gt; update_password_time  /* &amp;#39;密码更新时间&amp;#39; */: bigint&lt;br/&gt; casdoor_user_id  /* casdoorid */: varchar(40)&lt;br/&gt; ldap_user_dn: varchar(1000)&lt;br/&gt; from  /* 注册来源  app、fide、web */: varchar(64)&lt;/p&gt;&lt;hr size=&quot;1&quot;/&gt;&lt;p style=&quot;margin:0 0 0 4px;line-height:1.6;&quot;&gt; id  /* &amp;#39;自增id&amp;#39; */: bigint&lt;/p&gt;" style="verticalAlign=top;align=left;overflow=fill;fontSize=14;fontFamily=Helvetica;html=1;rounded=0;shadow=0;comic=0;labelBackgroundColor=none;strokeWidth=1;" parent="1" vertex="1">
          <mxGeometry x="-357" y="760" width="332" height="714" as="geometry" />
        </mxCell>
        <mxCell id="node8" value="&lt;p style=&quot;margin:0px;margin-top:4px;text-align:center;&quot;&gt;&lt;b&gt;organ_business&lt;/b&gt;&lt;/p&gt;&lt;hr size=&quot;1&quot;/&gt;&lt;p style=&quot;margin:0 0 0 4px;line-height:1.6;&quot;&gt; business_id  /* &amp;#39;企业id&amp;#39; */: varchar(40)&lt;br/&gt; account_trace_id: longtext&lt;br/&gt; business_name  /* &amp;#39;企业名称&amp;#39; */: varchar(40)&lt;br/&gt; social_credit_code  /* &amp;#39;社会信用代码&amp;#39; */: varchar(64)&lt;br/&gt; license_netdisk_id  /* &amp;#39;企业营业执照网盘id&amp;#39; */: varchar(128)&lt;br/&gt; authorization_netdisk_id  /* &amp;#39;授权书网盘id&amp;#39; */: varchar(128)&lt;br/&gt; admin_name  /* &amp;#39;管理员姓名&amp;#39; */: varchar(40)&lt;br/&gt; admin_identity  /* &amp;#39;管理员身份证&amp;#39; */: varchar(64)&lt;br/&gt; admin_phone  /* &amp;#39;管理员手机&amp;#39; */: varchar(64)&lt;br/&gt; review_status  /* &amp;#39;审核状态&amp;#39; */: tinyint(1)&lt;br/&gt; organ_role_type  /* &amp;#39;企业角色类型&amp;#39; */: varchar(64)&lt;br/&gt; juridical_person_name  /* &amp;#39;法人姓名&amp;#39; */: varchar(64)&lt;br/&gt; juridical_person_id_card  /* &amp;#39;法人身份证号&amp;#39; */: varchar(64)&lt;br/&gt; create_time  /* &amp;#39;创建时间&amp;#39; */: bigint&lt;br/&gt; update_time  /* &amp;#39;更新时间&amp;#39; */: bigint&lt;br/&gt; delete_time  /* &amp;#39;删除时间&amp;#39; */: bigint&lt;/p&gt;&lt;hr size=&quot;1&quot;/&gt;&lt;p style=&quot;margin:0 0 0 4px;line-height:1.6;&quot;&gt; id  /* &amp;#39;自增id&amp;#39; */: bigint&lt;/p&gt;" style="verticalAlign=top;align=left;overflow=fill;fontSize=14;fontFamily=Helvetica;html=1;rounded=0;shadow=0;comic=0;labelBackgroundColor=none;strokeWidth=1;" parent="1" vertex="1">
          <mxGeometry x="852" y="760" width="377" height="406" as="geometry" />
        </mxCell>
        <mxCell id="node7" value="&lt;p style=&quot;margin:0px;margin-top:4px;text-align:center;&quot;&gt;&lt;b&gt;organ_member&lt;/b&gt;&lt;/p&gt;&lt;hr size=&quot;1&quot;/&gt;&lt;p style=&quot;margin:0 0 0 4px;line-height:1.6;&quot;&gt; member_id  /* &amp;#39;组织成员id&amp;#39; */: varchar(40)&lt;br/&gt; account_id  /* &amp;#39;账户id&amp;#39; */: varchar(40)&lt;br/&gt; organ_id  /* &amp;#39;组织id&amp;#39; */: varchar(40)&lt;br/&gt; status  /* &amp;#39;成员状态&amp;#39; */: tinyint(1)&lt;br/&gt; ext_info  /* &amp;#39;拓展信息&amp;#39; */: text&lt;br/&gt; create_time  /* &amp;#39;创建时间&amp;#39; */: bigint&lt;br/&gt; update_time  /* &amp;#39;更新时间&amp;#39; */: bigint&lt;/p&gt;&lt;hr size=&quot;1&quot;/&gt;&lt;p style=&quot;margin:0 0 0 4px;line-height:1.6;&quot;&gt; id  /* &amp;#39;自增id&amp;#39; */: bigint&lt;/p&gt;" style="verticalAlign=top;align=left;overflow=fill;fontSize=14;fontFamily=Helvetica;html=1;rounded=0;shadow=0;comic=0;labelBackgroundColor=none;strokeWidth=1;fillColor=#d5e8d4;strokeColor=#82b366;" parent="1" vertex="1">
          <mxGeometry x="60" y="760" width="272" height="208" as="geometry" />
        </mxCell>
        <mxCell id="node1" value="&lt;p style=&quot;margin:0px;margin-top:4px;text-align:center;&quot;&gt;&lt;b&gt;organ_role&lt;/b&gt;&lt;/p&gt;&lt;hr size=&quot;1&quot;/&gt;&lt;p style=&quot;margin:0 0 0 4px;line-height:1.6;&quot;&gt; role_id  /* &amp;#39;角色id&amp;#39; */: varchar(40)&lt;br/&gt; name  /* &amp;#39;角色名称&amp;#39; */: varchar(64)&lt;br/&gt; create_time  /* &amp;#39;创建时间&amp;#39; */: bigint&lt;br/&gt; update_time  /* &amp;#39;更新时间&amp;#39; */: bigint&lt;br/&gt; delete_time  /* &amp;#39;删除时间&amp;#39; */: bigint&lt;/p&gt;&lt;hr size=&quot;1&quot;/&gt;&lt;p style=&quot;margin:0 0 0 4px;line-height:1.6;&quot;&gt; id  /* &amp;#39;自增id&amp;#39; */: bigint&lt;/p&gt;" style="verticalAlign=top;align=left;overflow=fill;fontSize=14;fontFamily=Helvetica;html=1;rounded=0;shadow=0;comic=0;labelBackgroundColor=none;strokeWidth=1;" parent="1" vertex="1">
          <mxGeometry x="-50" y="209" width="234" height="164" as="geometry" />
        </mxCell>
        <mxCell id="node0" value="&lt;p style=&quot;margin:0px;margin-top:4px;text-align:center;&quot;&gt;&lt;b&gt;role&lt;/b&gt;&lt;/p&gt;&lt;hr size=&quot;1&quot;/&gt;&lt;p style=&quot;margin:0 0 0 4px;line-height:1.6;&quot;&gt; type  /* &amp;#39;角色类型&amp;#39; */: tinyint(1)&lt;br/&gt; organ_id  /* &amp;#39;企业id&amp;#39; */: varchar(48)&lt;br/&gt; creator_id  /* &amp;#39;创建者id&amp;#39; */: varchar(48)&lt;br/&gt; role_name  /* &amp;#39;角色名称&amp;#39; */: varchar(48)&lt;br/&gt; auth_info  /* &amp;#39;权限详情&amp;#39; */: text&lt;br/&gt; create_time  /* &amp;#39;创建时间&amp;#39; */: bigint&lt;br/&gt; update_time  /* &amp;#39;更新时间&amp;#39; */: bigint&lt;br/&gt; exp_data  /* &amp;#39;扩展信息&amp;#39; */: text&lt;/p&gt;&lt;hr size=&quot;1&quot;/&gt;&lt;p style=&quot;margin:0 0 0 4px;line-height:1.6;&quot;&gt; id  /* &amp;#39;业务主键id&amp;#39; */: varchar(40)&lt;/p&gt;" style="verticalAlign=top;align=left;overflow=fill;fontSize=14;fontFamily=Helvetica;html=1;rounded=0;shadow=0;comic=0;labelBackgroundColor=none;strokeWidth=1;" parent="1" vertex="1">
          <mxGeometry x="-150" y="-360" width="257" height="230" as="geometry" />
        </mxCell>
        <mxCell id="node9" value="&lt;p style=&quot;margin:0px;margin-top:4px;text-align:center;&quot;&gt;&lt;b&gt;role_account_binding&lt;/b&gt;&lt;/p&gt;&lt;hr size=&quot;1&quot;/&gt;&lt;p style=&quot;margin:0 0 0 4px;line-height:1.6;&quot;&gt; role_id  /* &amp;#39;角色id&amp;#39; */: varchar(48)&lt;br/&gt; account_list  /* &amp;#39;用户列表&amp;#39; */: varchar(4096)&lt;br/&gt; create_time  /* &amp;#39;创建时间&amp;#39; */: bigint&lt;br/&gt; update_time  /* &amp;#39;更新时间&amp;#39; */: bigint&lt;/p&gt;&lt;hr size=&quot;1&quot;/&gt;&lt;p style=&quot;margin:0 0 0 4px;line-height:1.6;&quot;&gt; id  /* &amp;#39;业务主键id&amp;#39; */: varchar(40)&lt;/p&gt;" style="verticalAlign=top;align=left;overflow=fill;fontSize=14;fontFamily=Helvetica;html=1;rounded=0;shadow=0;comic=0;labelBackgroundColor=none;strokeWidth=1;" parent="1" vertex="1">
          <mxGeometry x="700" y="209" width="285" height="142" as="geometry" />
        </mxCell>
        <mxCell id="edge4" value="" style="html=1;rounded=1;edgeStyle=orthogonalEdgeStyle;dashed=0;startArrow=none;endArrow=block;endSize=12;strokeColor=#595959;exitX=0.500;exitY=0.000;exitDx=0;exitDy=0;" parent="1" source="node5" edge="1">
          <mxGeometry width="50" height="50" relative="1" as="geometry">
            <Array as="points">
              <mxPoint x="1142" y="41" />
              <mxPoint x="759" y="41" />
              <mxPoint x="759" y="-94" />
              <mxPoint x="673" y="-94" />
            </Array>
            <mxPoint x="120" y="-250" as="targetPoint" />
          </mxGeometry>
        </mxCell>
        <mxCell id="label26" value="role_id:id" style="edgeLabel;resizable=0;html=1;align=left;verticalAlign=top;strokeColor=default;" parent="edge4" vertex="1" connectable="0">
          <mxGeometry x="921" y="23" as="geometry" />
        </mxCell>
        <mxCell id="edge0" value="" style="html=1;rounded=1;edgeStyle=orthogonalEdgeStyle;dashed=0;startArrow=none;endArrow=block;endSize=12;strokeColor=#595959;exitX=1.000;exitY=0.165;exitDx=0;exitDy=0;" parent="1" source="node4" edge="1">
          <mxGeometry width="50" height="50" relative="1" as="geometry">
            <Array as="points">
              <mxPoint x="759" y="41" />
              <mxPoint x="759" y="-94" />
              <mxPoint x="673" y="-94" />
            </Array>
            <mxPoint x="120" y="-250" as="targetPoint" />
          </mxGeometry>
        </mxCell>
        <mxCell id="label2" value="role_id:id" style="edgeLabel;resizable=0;html=1;align=left;verticalAlign=top;strokeColor=default;" parent="edge0" vertex="1" connectable="0">
          <mxGeometry x="698" y="-47" as="geometry" />
        </mxCell>
        <mxCell id="edge3" value="" style="html=1;rounded=1;edgeStyle=orthogonalEdgeStyle;dashed=0;startArrow=none;endArrow=block;endSize=12;strokeColor=#595959;exitX=0.500;exitY=0.000;exitDx=0;exitDy=0;" parent="1" source="node1" edge="1">
          <mxGeometry width="50" height="50" relative="1" as="geometry">
            <Array as="points">
              <mxPoint x="211" y="-94" />
              <mxPoint x="673" y="-94" />
            </Array>
            <mxPoint x="120" y="-250" as="targetPoint" />
          </mxGeometry>
        </mxCell>
        <mxCell id="label20" value="role_id:id" style="edgeLabel;resizable=0;html=1;align=left;verticalAlign=top;strokeColor=default;" parent="edge3" vertex="1" connectable="0">
          <mxGeometry x="413" y="-113" as="geometry" />
        </mxCell>
        <mxCell id="edge1" value="" style="html=1;rounded=1;edgeStyle=orthogonalEdgeStyle;dashed=0;startArrow=none;endArrow=block;endSize=12;strokeColor=#595959;exitX=0.500;exitY=0.000;exitDx=0;exitDy=0;" parent="1" source="node9" edge="1">
          <mxGeometry width="50" height="50" relative="1" as="geometry">
            <Array as="points">
              <mxPoint x="843" y="41" />
              <mxPoint x="759" y="41" />
              <mxPoint x="759" y="-94" />
              <mxPoint x="673" y="-94" />
            </Array>
            <mxPoint x="110" y="-250" as="targetPoint" />
          </mxGeometry>
        </mxCell>
        <mxCell id="label8" value="role_id:id" style="edgeLabel;resizable=0;html=1;align=left;verticalAlign=top;strokeColor=default;" parent="edge1" vertex="1" connectable="0">
          <mxGeometry x="785" y="48" as="geometry" />
        </mxCell>
        <mxCell id="7n5aa4kr8ttrAwYhI3hU-2" value="" style="endArrow=block;startArrow=block;endFill=1;startFill=1;html=1;rounded=0;exitX=1;exitY=0.128;exitDx=0;exitDy=0;exitPerimeter=0;entryX=0.003;entryY=0.178;entryDx=0;entryDy=0;entryPerimeter=0;" edge="1" parent="1" source="node6" target="node8">
          <mxGeometry width="160" relative="1" as="geometry">
            <mxPoint x="797" y="620" as="sourcePoint" />
            <mxPoint x="957" y="620" as="targetPoint" />
          </mxGeometry>
        </mxCell>
      </root>
    </mxGraphModel>
  </diagram>
</mxfile>
